<?xml version="1.0" encoding="utf-8"?>
<!-- Generator: Adobe Illustrator 16.0.0, SVG Export Plug-In . SVG Version: 6.00 Build 0)  -->
<!DOCTYPE svg PUBLIC "-//W3C//DTD SVG 1.1//EN" "http://www.w3.org/Graphics/SVG/1.1/DTD/svg11.dtd">
<svg version="1.1" id="Layer_1" xmlns="http://www.w3.org/2000/svg" xmlns:xlink="http://www.w3.org/1999/xlink" x="0px" y="0px"
	 width="14.049px" height="14.17px" viewBox="0 0 14.049 14.17" enable-background="new 0 0 14.049 14.17" xml:space="preserve">
<g>
	<defs>
		<rect id="SVGID_1_" width="14.049" height="14.17"/>
	</defs>
	<clipPath id="SVGID_2_">
		<use xlink:href="#SVGID_1_"  overflow="visible"/>
	</clipPath>
	<path clip-path="url(#SVGID_2_)" fill="#C60622" d="M12.044,2.077c-1.371-1.371-3.598-1.374-4.97,0
		C7.061,2.089,7.057,2.094,7.046,2.104c-0.003,0.002-0.01,0.009-0.015,0.015C6.973,2.188,6.963,2.29,7.017,2.367
		C7.031,2.382,7.039,2.4,7.054,2.415c1.162,1.318,1.167,3.3,0.016,4.622c0,0,0.005,0.006,0.007,0.007c0,0,0.004,0.005,0.007,0.008
		c1.319-1.157,3.301-1.15,4.62,0.012c0.006,0.006,0.008,0.011,0.01,0.014c0.012,0.011,0.027,0.023,0.041,0.026
		c0.076,0.05,0.178,0.045,0.244-0.019c0.006-0.006,0.014-0.012,0.016-0.015c0.013-0.011,0.017-0.016,0.025-0.027
		C13.413,5.669,13.415,3.449,12.044,2.077"/>
	<path clip-path="url(#SVGID_2_)" fill="#CE0B1E" d="M12.012,7.07c-0.002,0.003-0.01,0.009-0.016,0.015
		c0.002-0.002,0.006-0.006,0.014-0.012L12.012,7.07z"/>
	<path clip-path="url(#SVGID_2_)" fill="#C60622" d="M2.01,12.084c1.369,1.371,3.594,1.367,4.966-0.006
		c0.007-0.008,0.018-0.019,0.026-0.027c0.006-0.004,0.01-0.01,0.014-0.014c0.067-0.07,0.069-0.17,0.025-0.248
		c-0.016-0.017-0.03-0.029-0.046-0.047c-1.159-1.316-1.163-3.299-0.012-4.619C6.981,7.118,6.978,7.116,6.978,7.116
		C6.975,7.112,6.971,7.109,6.971,7.109C5.648,8.258,3.667,8.257,2.347,7.093C2.344,7.09,2.339,7.085,2.335,7.079
		c-0.01-0.01-0.024-0.021-0.032-0.028C2.224,7.005,2.127,7.012,2.052,7.074c-0.003,0.003-0.01,0.005-0.016,0.011
		c-0.009,0.009-0.02,0.02-0.026,0.026C0.638,8.485,0.638,10.713,2.01,12.084"/>
	<path clip-path="url(#SVGID_2_)" fill="#CE0B1E" d="M2.036,7.085c0.006-0.006,0.013-0.008,0.016-0.011
		c-0.006,0.001-0.006,0.001-0.01,0.005C2.04,7.082,2.04,7.082,2.036,7.085"/>
	<path clip-path="url(#SVGID_2_)" fill="#C60622" d="M11.95,12.102c1.373-1.373,1.373-3.595,0-4.969
		c-0.006-0.007-0.017-0.016-0.027-0.024c-0.004-0.007-0.01-0.013-0.018-0.018c-0.064-0.063-0.166-0.068-0.246-0.021
		c-0.015,0.015-0.031,0.032-0.049,0.045C10.298,8.276,8.313,8.279,6.99,7.13c0,0-0.003-0.001-0.007,0.004L6.978,7.142
		c1.152,1.321,1.15,3.304-0.013,4.618c-0.004,0.004-0.015,0.01-0.017,0.012c-0.013,0.015-0.017,0.029-0.026,0.035
		c-0.051,0.082-0.044,0.184,0.018,0.25c0.005,0.008,0.011,0.013,0.017,0.021c0.01,0.008,0.019,0.018,0.025,0.022
		C8.356,13.473,10.579,13.473,11.95,12.102"/>
	<path clip-path="url(#SVGID_2_)" fill="#CE0B1E" d="M6.957,12.076c-0.006-0.008-0.012-0.013-0.017-0.02
		c0.003,0.006,0.005,0.008,0.009,0.011C6.951,12.068,6.953,12.07,6.957,12.076"/>
	<path clip-path="url(#SVGID_2_)" fill="#C60622" d="M2.111,2.07c-1.371,1.371-1.37,3.598,0,4.968
		c0.013,0.012,0.017,0.017,0.03,0.029c0.007,0.006,0.008,0.007,0.017,0.011C2.225,7.14,2.326,7.149,2.401,7.102
		C2.42,7.083,2.437,7.07,2.45,7.058c1.321-1.164,3.3-1.17,4.625-0.014l0.006-0.006l0.007-0.007C5.935,5.702,5.94,3.727,7.098,2.41
		c0.008-0.008,0.015-0.008,0.019-0.013c0.01-0.01,0.018-0.024,0.027-0.038c0.05-0.077,0.037-0.176-0.021-0.247
		C7.115,2.105,7.114,2.104,7.108,2.099C7.097,2.087,7.096,2.078,7.083,2.067C5.713,0.696,3.485,0.696,2.111,2.07"/>
	<path clip-path="url(#SVGID_2_)" fill="#CE0B1E" d="M7.108,2.099c0.006,0.006,0.007,0.007,0.014,0.014
		c-0.003-0.003-0.003-0.01-0.003-0.01C7.114,2.098,7.108,2.099,7.108,2.099"/>
	<polygon clip-path="url(#SVGID_2_)" fill="#AE0F0A" points="10.536,3.553 10.536,3.573 10.536,3.555 	"/>
	<path clip-path="url(#SVGID_2_)" fill="#E30613" d="M7.026,0C5.087,0,3.513,1.571,3.513,3.513v0.04v0.02
		C3.521,3.665,3.585,3.742,3.679,3.76c0.021,0,0.039,0.008,0.06,0.008c1.753,0.109,3.159,1.507,3.279,3.258h0.01h0.01
		c0.116-1.751,1.521-3.148,3.277-3.258c0.008,0,0.012,0.001,0.018,0.001c0.014,0,0.033-0.001,0.047-0.009
		c0.088-0.018,0.156-0.095,0.158-0.187v-0.02v-0.04C10.536,1.571,8.967,0,7.026,0"/>
	<path clip-path="url(#SVGID_2_)" fill="#AE0F0A" d="M3.493,10.615c0-0.006,0.002-0.015,0.002-0.019
		c-0.002,0.004-0.002,0.004-0.002,0.013V10.615z"/>
	<path clip-path="url(#SVGID_2_)" fill="#E30613" d="M7.009,14.17c1.938,0,3.505-1.576,3.505-3.516v-0.039v-0.019
		c0-0.098-0.069-0.172-0.157-0.194h-0.064c-1.75-0.111-3.156-1.513-3.274-3.259H7.009h-0.01C6.876,8.89,5.474,10.29,3.718,10.402
		H3.7H3.656c-0.088,0.022-0.151,0.098-0.161,0.194c0,0.004-0.002,0.013-0.002,0.019v0.039C3.493,12.594,5.067,14.17,7.009,14.17"/>
	<polygon clip-path="url(#SVGID_2_)" fill="#E30613" points="10.501,10.664 10.478,10.664 10.488,10.664 	"/>
	<path clip-path="url(#SVGID_2_)" fill="#E30613" d="M14.049,7.151c0-1.94-1.572-3.512-3.514-3.512H10.5h-0.023
		c-0.094,0.003-0.17,0.071-0.19,0.16c0,0.021,0,0.046-0.002,0.066c-0.109,1.751-1.51,3.154-3.257,3.277c0,0-0.002,0.001-0.002,0.008
		l0.002,0.01c1.748,0.12,3.147,1.523,3.257,3.275c0,0.004-0.004,0.017-0.004,0.021c0,0.016,0.006,0.031,0.006,0.043
		c0.021,0.096,0.098,0.16,0.19,0.164H10.5h0.035C12.477,10.664,14.049,9.094,14.049,7.151"/>
	<path clip-path="url(#SVGID_2_)" fill="#E30613" d="M3.554,3.504h0.02c-0.005,0-0.009-0.006-0.012-0.006
		C3.558,3.498,3.554,3.504,3.554,3.504"/>
	<path clip-path="url(#SVGID_2_)" fill="#E30613" d="M0,7.017c0,1.94,1.575,3.513,3.513,3.513h0.041c0.008,0,0.011,0,0.02-0.002
		c0.092-0.007,0.169-0.07,0.189-0.156c0-0.029,0.003-0.049,0.003-0.066c0.112-1.758,1.506-3.161,3.261-3.28V7.018V7.007
		C5.272,6.882,3.878,5.48,3.766,3.729c0-0.009,0.005-0.014,0.005-0.02c0-0.015-0.005-0.03-0.008-0.046
		c-0.021-0.091-0.098-0.151-0.189-0.16h-0.02c-0.018,0-0.024-0.006-0.041-0.006C1.575,3.498,0,5.074,0,7.017"/>
	<path clip-path="url(#SVGID_2_)" d="M7.025,6.317c0.424,0,0.768,0.344,0.768,0.768S7.449,7.853,7.025,7.853
		c-0.424,0-0.769-0.344-0.769-0.768S6.601,6.317,7.025,6.317"/>
	<path clip-path="url(#SVGID_2_)" d="M7.573,7.63C7.274,7.931,6.787,7.927,6.487,7.629c-0.3-0.301-0.301-0.786-0.001-1.087
		c0.299-0.297,0.789-0.3,1.088-0.001C7.873,6.841,7.872,7.332,7.573,7.63"/>
</g>
</svg>
